<?xml version="1.0" standalone="no"?>
<!DOCTYPE svg PUBLIC "-//W3C//DTD SVG 20010904//EN"
 "http://www.w3.org/TR/2001/REC-SVG-20010904/DTD/svg10.dtd">
<svg version="1.0" xmlns="http://www.w3.org/2000/svg"
 width="1800.000000pt" height="1826.000000pt" viewBox="0 0 1800.000000 1826.000000"
 preserveAspectRatio="xMidYMid meet">
<metadata>
Created by potrace 1.16, written by Peter Selinger 2001-2019
</metadata>
<g transform="translate(0.000000,1826.000000) scale(0.100000,-0.100000)"
fill="#000000" stroke="none">
<path d="M8400 16620 c-1048 -54 -2062 -315 -2993 -770 -251 -122 -363 -183
-577 -310 -1074 -641 -1973 -1528 -2637 -2600 -217 -350 -457 -825 -590 -1165
-19 -49 -45 -117 -58 -150 -214 -544 -384 -1244 -454 -1870 -40 -353 -46 -466
-46 -885 0 -423 8 -574 46 -905 169 -1459 728 -2800 1654 -3965 255 -321 596
-679 920 -964 337 -298 662 -539 1055 -786 182 -115 382 -225 630 -349 829
-414 1735 -676 2645 -765 526 -52 1074 -52 1585 -1 1114 113 2208 476 3166
1050 560 335 1047 717 1519 1190 746 745 1325 1623 1716 2600 240 602 405
1235 489 1884 47 362 55 496 55 1001 0 494 -8 631 -50 970 -200 1576 -861
3030 -1919 4215 -126 142 -428 446 -571 574 -459 415 -942 761 -1455 1044
-998 549 -2062 864 -3200 947 -198 15 -729 20 -930 10z m830 -220 c1465 -85
2880 -603 4053 -1484 365 -274 643 -522 971 -866 670 -704 1212 -1567 1568
-2500 267 -697 426 -1434 478 -2208 13 -198 13 -751 0 -957 -52 -805 -232
-1606 -525 -2335 -704 -1751 -2034 -3176 -3728 -3995 -1341 -647 -2839 -879
-4327 -669 -485 68 -1009 197 -1460 359 -1014 364 -1929 933 -2695 1674 -234
227 -410 417 -590 636 -886 1082 -1451 2360 -1644 3721 -129 908 -98 1800 94
2699 211 991 655 1983 1258 2815 479 660 1046 1227 1707 1705 583 423 1282
785 1960 1016 633 216 1336 352 2025 392 132 8 700 6 855 -3z"/>
<path d="M8315 16169 c-1180 -86 -2240 -415 -3230 -1002 -128 -75 -361 -226
-500 -324 -160 -112 -494 -378 -625 -498 -25 -23 -79 -72 -120 -110 -307 -279
-727 -755 -965 -1095 -264 -375 -431 -655 -609 -1015 -718 -1451 -937 -3070
-630 -4670 27 -142 36 -182 95 -420 220 -882 640 -1768 1197 -2525 357 -484
833 -983 1297 -1356 1343 -1081 2989 -1645 4700 -1611 390 8 628 28 985 83
1387 213 2685 830 3745 1780 151 134 448 434 576 579 430 490 781 1004 1056
1550 442 876 685 1737 775 2745 17 195 17 965 0 1160 -86 965 -315 1807 -717
2635 -463 953 -1129 1792 -1980 2491 -203 166 -598 443 -840 587 -626 372
-1293 648 -1975 815 -437 108 -818 167 -1295 202 -161 11 -777 11 -940 -1z
m1060 -214 c702 -63 1309 -202 1932 -440 289 -111 394 -157 668 -295 525 -265
970 -563 1445 -969 172 -146 571 -545 721 -721 456 -532 814 -1088 1091 -1695
348 -761 551 -1544 625 -2405 32 -383 23 -948 -23 -1365 -163 -1492 -805
-2906 -1824 -4020 -69 -76 -356 -363 -435 -436 -826 -760 -1826 -1313 -2915
-1614 -1264 -349 -2654 -331 -3920 52 -164 49 -431 144 -597 212 -457 188
-769 350 -1182 614 -1147 735 -2080 1824 -2638 3077 -343 771 -534 1534 -604
2420 -16 200 -16 780 0 980 65 821 225 1507 524 2240 46 113 212 472 246 535
16 28 50 90 76 139 197 369 513 835 795 1171 625 745 1389 1352 2245 1784 908
459 1834 700 2890 755 153 8 720 -4 880 -19z"/>
<path d="M8463 15351 c-89 -4 -164 -9 -168 -12 -8 -8 25 -932 34 -939 3 -3
135 -1 294 4 l287 9 0 59 0 60 -72 -6 c-40 -3 -145 -7 -233 -8 l-160 -3 -6
170 c-3 94 -4 172 -2 174 2 3 98 8 214 12 116 4 212 9 213 11 1 2 0 27 -2 56
l-4 53 -212 -7 -213 -7 -6 63 c-4 35 -7 94 -7 131 l0 69 103 0 c56 0 159 3
230 7 l127 6 0 54 0 53 -127 -2 c-71 -1 -201 -4 -290 -7z"/>
<path d="M7701 15272 l-64 -17 -42 -75 c-23 -41 -66 -118 -95 -170 -29 -52
-67 -120 -84 -151 -66 -119 -57 -127 -104 92 -23 107 -42 200 -42 207 0 6 -9
12 -21 12 -20 0 -109 -20 -109 -25 0 -3 76 -360 115 -535 18 -85 44 -203 56
-262 12 -59 25 -111 28 -116 9 -14 121 9 121 24 0 8 -16 84 -35 170 -19 86
-35 167 -35 180 0 31 20 74 35 74 6 0 105 -79 220 -175 128 -107 215 -173 224
-171 9 3 42 10 74 17 31 7 57 16 57 20 0 7 -87 81 -387 328 -104 85 -112 94
-102 114 10 19 207 355 261 445 23 37 22 37 -71 14z"/>
<path d="M10167 15203 c-2 -4 -8 -27 -12 -50 l-7 -42 39 -9 c153 -38 148 -36
144 -62 -10 -75 -135 -571 -152 -607 -29 -61 -73 -79 -153 -63 -33 6 -84 25
-113 41 l-52 29 -10 -38 c-23 -84 -24 -82 64 -115 104 -39 218 -44 280 -10 81
43 109 94 153 278 18 72 54 224 82 338 27 115 50 216 50 226 0 13 -28 24 -137
50 -76 19 -145 36 -154 38 -9 3 -19 1 -22 -4z"/>
<path d="M6293 14856 c-29 -12 -57 -26 -61 -31 -5 -6 -1 -118 9 -250 10 -132
25 -352 34 -490 10 -137 19 -252 21 -254 2 -2 29 7 59 19 l57 23 -8 106 c-5
58 -8 121 -9 140 l0 34 160 68 c88 38 163 68 166 66 4 -1 46 -48 94 -104 48
-57 89 -103 90 -103 12 0 115 52 115 57 -1 5 -24 34 -53 65 -29 32 -173 197
-322 367 -148 170 -277 310 -285 309 -8 0 -39 -10 -67 -22z m206 -305 c77 -90
141 -167 141 -170 0 -8 -250 -114 -256 -109 -2 2 -10 87 -18 188 -9 102 -18
202 -20 223 -2 21 -1 37 4 35 4 -2 71 -77 149 -167z"/>
<path d="M11110 14857 c-117 -39 -209 -128 -280 -269 -61 -122 -85 -222 -77
-330 10 -150 85 -255 235 -326 73 -35 82 -37 177 -37 88 0 107 3 159 27 122
58 249 235 292 407 22 90 16 239 -13 303 -26 57 -100 139 -157 172 -102 60
-247 83 -336 53z m216 -118 c67 -25 127 -77 157 -133 29 -58 28 -186 -3 -276
-75 -218 -211 -343 -354 -326 -107 12 -199 82 -231 175 -48 142 28 378 163
502 84 77 168 95 268 58z"/>
<path d="M5398 14402 c-37 -26 -67 -51 -67 -57 0 -5 23 -129 52 -275 29 -146
50 -266 46 -268 -4 -2 -114 62 -244 142 l-236 146 -69 -47 c-39 -25 -70 -49
-70 -53 0 -4 32 -54 71 -111 172 -250 222 -324 334 -489 65 -96 120 -177 121
-178 4 -6 94 58 94 67 0 5 -99 154 -220 331 -122 177 -220 324 -218 325 3 3
196 -114 303 -183 17 -11 68 -43 114 -71 80 -50 84 -51 108 -36 13 9 27 23 30
30 3 8 -18 141 -47 296 -28 155 -50 282 -48 284 2 2 44 -58 95 -134 50 -75
127 -188 170 -251 43 -63 103 -150 132 -192 29 -43 55 -78 58 -78 3 0 27 16
53 35 l49 36 -88 127 c-48 70 -139 204 -203 297 -218 321 -242 355 -247 355
-3 -1 -36 -22 -73 -48z"/>
<path d="M12146 14388 c-3 -18 -11 -109 -17 -203 -5 -93 -14 -219 -18 -280
l-8 -110 -108 -155 c-59 -85 -108 -161 -109 -169 -1 -8 20 -29 45 -47 l46 -33
119 173 119 173 195 87 c107 49 232 105 277 125 45 20 83 39 83 43 0 9 -91 71
-104 71 -6 0 -105 -44 -220 -97 -114 -53 -211 -95 -213 -92 -3 3 2 99 11 213
22 280 25 255 -33 297 -27 20 -51 36 -54 36 -4 0 -8 -15 -11 -32z"/>
<path d="M12700 10502 l0 -1119 29 -6 c24 -5 29 -12 35 -46 6 -38 8 -41 39
-41 18 0 65 9 105 20 39 11 74 20 77 20 3 0 5 -9 5 -20 0 -30 18 -24 22 7 3
27 38 48 38 23 0 -6 9 -24 21 -39 14 -19 19 -36 14 -50 -5 -18 -12 -20 -50
-14 -42 5 -44 4 -69 -36 -14 -22 -37 -48 -51 -57 -14 -9 -25 -23 -25 -30 0
-22 -12 -17 -48 20 -21 22 -30 39 -26 50 4 10 1 16 -9 16 -11 0 -13 -10 -9
-45 l5 -45 -51 0 c-45 0 -50 -2 -56 -25 -4 -15 -1 -38 6 -53 11 -22 21 -28 53
-30 22 -2 46 -8 53 -15 16 -13 29 3 39 46 7 33 35 51 51 35 9 -9 18 -8 37 0
14 7 37 12 50 12 23 0 25 -4 25 -42 0 -24 -3 -59 -6 -80 -6 -32 -10 -37 -43
-43 -41 -8 -71 -30 -71 -54 0 -12 -3 -12 -12 -3 -18 18 -81 14 -132 -8 l-46
-19 0 -306 0 -305 23 0 c12 0 28 9 35 20 7 11 19 20 28 20 13 0 15 -7 9 -42
-11 -68 -21 -74 -82 -51 -10 4 -13 -59 -13 -296 0 -166 4 -301 8 -301 4 0 13
5 20 12 10 10 17 7 35 -10 l22 -23 -21 -17 c-13 -11 -33 -57 -53 -122 -56
-178 -171 -456 -276 -665 -95 -191 -103 -202 -160 -248 -77 -62 -217 -131
-320 -158 -60 -16 -121 -23 -242 -26 -140 -5 -174 -2 -265 17 -56 12 -130 33
-163 47 -103 43 -226 82 -276 89 -40 5 -48 10 -54 32 -11 44 -44 80 -107 118
-34 19 -77 48 -96 64 l-34 28 -45 -51 c-60 -68 -77 -84 -214 -204 -110 -96
-200 -199 -220 -250 -5 -13 -15 -23 -23 -23 -8 0 -18 -9 -21 -20 -3 -11 -13
-20 -21 -20 -23 0 -16 -26 23 -87 111 -174 315 -321 639 -462 355 -153 641
-208 952 -183 390 32 727 168 1037 417 102 82 279 258 356 355 174 218 305
494 366 774 25 118 26 133 30 539 3 284 1 422 -6 431 -7 8 -7 16 -1 22 7 7 4
25 -9 55 -32 76 -33 103 -5 129 l24 23 0 290 c0 282 0 289 -21 306 l-21 17 22
67 c26 78 25 184 -5 304 -18 71 -18 71 3 98 20 26 21 29 6 63 -9 21 -18 43
-21 50 -3 7 7 26 23 43 l28 29 4 269 c5 284 -7 447 -36 511 -9 19 -19 43 -24
52 -5 13 0 25 19 42 22 21 28 38 34 93 13 114 10 375 -7 597 -11 141 -15 279
-11 418 5 242 22 218 -154 218 -103 0 -121 -3 -163 -24 l-48 -24 -36 21 c-34
20 -53 22 -254 25 l-218 3 0 -1119z m507 -1303 l45 -12 -6 -43 -6 -44 36 0
c41 0 74 -15 74 -34 0 -15 -53 -13 -143 5 -26 5 -79 9 -117 9 -42 0 -70 4 -70
10 0 22 30 68 60 94 35 29 59 32 127 15z m-2842 -3013 c18 -8 41 -26 51 -41
l17 -26 31 30 c39 37 46 38 46 6 0 -20 6 -25 35 -31 22 -4 37 -13 41 -26 8
-25 -6 -187 -17 -193 -4 -3 -15 7 -23 23 -8 16 -22 34 -30 41 -11 9 -16 30
-16 62 0 27 -2 49 -4 49 -2 0 -23 -9 -47 -20 -74 -33 -94 -28 -122 33 -38 78
-41 95 -20 100 10 3 19 5 21 6 1 0 18 -5 37 -13z"/>
<path d="M5959 11543 c-48 -50 -180 -305 -213 -412 -42 -133 -121 -326 -218
-529 -47 -100 -98 -237 -98 -264 0 -7 -23 -51 -51 -98 -66 -111 -196 -372
-239 -480 -66 -166 -149 -357 -234 -541 -47 -102 -86 -191 -86 -198 0 -6 5
-11 11 -11 6 0 -1 -14 -16 -32 -35 -42 -87 -146 -118 -239 -14 -42 -50 -127
-81 -189 -30 -62 -58 -132 -62 -156 -3 -24 -10 -44 -15 -44 -5 0 -9 -7 -9 -17
0 -9 -10 -30 -23 -47 -42 -56 -149 -248 -204 -364 -29 -62 -119 -278 -199
-480 -80 -202 -156 -392 -169 -422 -13 -30 -69 -161 -124 -290 -178 -420 -256
-585 -362 -770 -57 -101 -94 -194 -110 -283 -10 -52 -17 -68 -37 -78 -23 -13
-78 -116 -67 -127 7 -7 904 -25 920 -18 6 2 51 93 100 203 48 109 100 225 116
258 15 33 71 159 124 280 53 121 126 285 162 365 36 80 83 186 105 235 22 50
58 128 79 173 22 46 39 86 39 88 0 3 22 53 49 112 154 339 443 990 611 1372
39 91 87 200 106 243 19 42 49 112 68 155 35 79 135 309 202 465 33 77 54 107
54 77 0 -5 11 -10 23 -10 22 0 25 -7 40 -81 12 -60 27 -98 60 -152 24 -40 57
-102 72 -140 21 -50 34 -69 52 -73 26 -7 30 -19 9 -27 -12 -5 -9 -20 15 -82
16 -42 29 -87 29 -99 0 -39 -45 -168 -84 -237 -40 -73 -76 -170 -76 -206 0
-13 -6 -23 -14 -23 -8 0 -14 -8 -14 -17 1 -10 -25 -58 -56 -108 -92 -145 -216
-408 -345 -730 -322 -810 -512 -1239 -662 -1500 -59 -101 -115 -247 -125 -325
-5 -39 -13 -55 -32 -68 -25 -16 -78 -119 -67 -130 9 -9 917 -24 926 -15 4 4
51 107 104 228 120 273 160 362 198 445 27 61 55 122 147 330 69 156 257 574
295 655 20 44 74 163 120 265 46 102 103 228 127 279 l44 95 48 -113 c73 -173
178 -397 242 -518 32 -59 64 -120 71 -134 7 -15 22 -66 32 -113 23 -106 39
-131 87 -143 45 -10 54 -28 19 -37 -33 -8 -34 -50 -2 -98 13 -19 43 -77 67
-129 56 -124 80 -177 130 -284 87 -186 114 -245 207 -450 52 -115 102 -226
110 -247 l15 -38 469 0 c284 0 469 4 469 9 0 10 -125 307 -190 451 -21 47 -77
173 -125 280 -48 107 -101 224 -117 260 -17 36 -38 83 -48 105 -9 22 -42 94
-72 160 -242 525 -389 849 -407 898 -29 81 -49 117 -79 150 -20 21 -23 30 -14
39 7 7 12 20 12 30 0 10 -40 98 -89 196 -78 155 -196 404 -330 696 l-41 89
147 344 c119 278 150 341 159 328 6 -8 20 -15 31 -15 16 0 21 -12 31 -73 10
-56 24 -93 62 -158 28 -46 59 -112 71 -147 18 -54 25 -64 49 -69 24 -4 27 -8
19 -22 -10 -16 29 -115 181 -461 23 -52 54 -124 70 -160 28 -67 125 -289 225
-515 31 -71 70 -159 87 -195 17 -36 47 -103 68 -150 21 -47 55 -121 75 -165
21 -44 48 -102 60 -130 12 -27 45 -97 73 -155 28 -58 60 -145 73 -193 25 -102
46 -134 94 -143 41 -7 46 -29 9 -38 -23 -6 -25 -10 -19 -39 4 -18 16 -45 26
-62 22 -34 31 -54 105 -222 30 -67 79 -175 110 -240 126 -266 194 -415 249
-545 l58 -138 474 0 c260 0 473 3 473 6 0 13 -201 475 -345 794 -31 69 -72
159 -90 200 -37 86 -412 902 -473 1030 -22 47 -54 121 -71 166 -18 46 -43 92
-60 108 -28 27 -28 29 -14 54 15 26 13 32 -52 167 -59 123 -144 304 -235 500
-82 178 -216 478 -270 605 -33 80 -68 150 -76 157 -9 6 -38 14 -66 18 -50 7
-88 32 -88 59 0 25 32 28 56 5 29 -27 44 -17 44 27 0 30 -4 35 -31 41 -23 4
-28 10 -23 22 16 40 14 53 -15 97 -17 26 -31 56 -31 66 0 14 -8 18 -34 18 -18
0 -47 5 -64 11 -27 9 -30 14 -22 30 7 12 21 19 39 19 40 0 42 7 15 47 -13 20
-24 48 -24 63 0 27 -36 91 -55 97 -6 2 -15 -11 -20 -29 -7 -22 -16 -33 -27
-32 -10 1 -15 -3 -12 -8 10 -15 -27 -49 -81 -74 -27 -13 -55 -24 -60 -24 -16
0 -5 93 13 106 13 10 13 17 -5 70 -12 32 -24 67 -28 77 -5 11 -3 17 7 17 22 0
42 -28 69 -93 12 -32 30 -63 38 -70 12 -10 14 -9 8 5 -3 9 1 22 9 28 19 17 18
24 -11 58 -31 37 -32 52 -1 52 16 0 34 -13 54 -37 33 -41 38 -41 44 -3 2 18
-3 28 -20 35 -18 8 -22 16 -19 35 6 27 -5 54 -34 85 -10 11 -60 126 -112 255
-107 264 -184 450 -247 590 -66 149 -209 433 -223 442 -9 6 -9 10 1 20 17 17
15 23 -13 54 -14 15 -25 38 -25 50 0 13 -4 24 -10 24 -5 0 -10 6 -10 14 0 7
-7 19 -15 26 -9 8 -13 21 -9 32 5 17 3 18 -14 9 -11 -6 -31 -24 -45 -40 -37
-45 -160 -302 -207 -435 -48 -136 -83 -218 -177 -421 -39 -82 -88 -199 -109
-260 -21 -60 -56 -139 -78 -175 -44 -72 -136 -264 -155 -323 -7 -20 -18 -43
-24 -50 -7 -6 -17 -25 -23 -42 -7 -22 -16 -29 -32 -28 -14 2 -20 -2 -16 -11 9
-24 -63 -75 -129 -91 -21 -6 -22 -3 -19 44 3 39 8 50 24 54 15 4 19 11 13 24
-46 117 -53 143 -41 143 20 0 42 -30 77 -105 23 -51 33 -64 36 -50 3 11 12 26
21 33 14 11 12 16 -19 48 -33 34 -33 36 -14 50 17 13 23 11 60 -26 42 -42 55
-43 55 -5 0 14 -10 26 -26 34 -20 9 -25 17 -21 32 7 26 -8 69 -32 89 -10 8
-62 125 -115 258 -107 268 -192 469 -268 637 -43 95 -75 160 -171 348 -10 20
-24 37 -30 37 -7 0 -7 4 1 12 18 18 15 37 -13 70 -14 16 -25 38 -25 49 0 10
-4 19 -9 19 -8 0 -18 21 -30 68 -6 23 -7 22 -42 -15z m170 -1720 c12 -26 3
-42 -21 -43 -5 0 -8 -13 -8 -30 0 -30 1 -30 54 -30 46 0 56 3 61 20 3 11 3 24
0 30 -4 6 8 10 28 10 40 0 67 -24 49 -42 -7 -7 -12 -22 -12 -34 0 -12 -6 -25
-12 -27 -10 -4 -9 -8 2 -17 13 -10 12 -11 -4 -6 -12 4 -25 -1 -36 -14 -25 -28
-78 -38 -86 -15 -4 10 -1 20 6 25 8 5 1 8 -20 7 -30 -2 -36 2 -52 36 -10 21
-30 43 -44 49 -21 10 -24 16 -19 37 8 33 10 34 34 26 14 -4 21 -15 21 -30 0
-13 5 -27 10 -30 12 -8 12 -8 0 33 -16 59 25 98 49 45z m1555 10 c3 -10 8 -23
11 -29 3 -6 -3 -14 -15 -17 -15 -4 -20 -13 -20 -36 0 -30 1 -31 50 -31 40 0
51 4 61 21 9 17 8 23 -2 30 -9 6 0 9 27 9 33 0 45 -5 58 -25 9 -13 16 -28 16
-32 0 -4 -4 -1 -10 7 -11 18 -21 9 -23 -21 0 -13 -6 -27 -12 -31 -6 -5 -5 -12
5 -19 12 -9 12 -10 -4 -5 -12 4 -27 -1 -41 -14 -12 -12 -35 -22 -51 -23 -23
-2 -29 2 -28 18 0 16 -6 20 -30 20 -26 0 -34 6 -50 38 -10 21 -29 43 -42 49
-14 7 -22 16 -19 22 3 6 8 19 11 29 10 28 37 17 42 -18 4 -23 22 -46 22 -28 0
7 -4 23 -10 38 -8 20 -6 29 8 44 22 25 38 26 46 4z m-1544 -232 c0 -5 -9 -13
-20 -16 -20 -6 -29 -45 -10 -45 6 0 10 5 10 10 0 19 32 10 71 -22 l39 -31 23
20 c27 25 71 16 107 -22 18 -19 34 -25 66 -25 43 0 54 -10 54 -50 0 -11 7 -35
16 -54 9 -19 14 -42 10 -51 -5 -15 -15 -10 -61 30 l-55 47 -49 -15 -50 -14
-28 34 c-19 23 -52 43 -101 63 -81 33 -151 78 -152 98 0 35 25 52 77 52 29 0
53 -4 53 -9z m1543 -10 c-29 -24 -32 -57 -4 -40 15 10 26 7 66 -22 l47 -34 15
22 c12 18 19 20 44 13 16 -5 43 -20 60 -34 21 -18 42 -26 69 -26 42 0 60 -18
60 -62 0 -26 26 -68 42 -68 6 0 8 11 5 28 -21 99 -22 92 13 92 27 0 30 -3 25
-20 -4 -14 -2 -20 9 -20 28 0 26 -18 -4 -48 -16 -17 -30 -35 -30 -41 0 -6 18
-16 40 -22 43 -13 48 -22 25 -45 -8 -9 -15 -26 -15 -38 0 -13 -6 -29 -14 -35
-12 -10 -17 -8 -25 8 -6 11 -11 29 -11 39 0 11 -12 31 -27 45 -16 13 -50 44
-76 68 l-48 42 -49 -15 -49 -16 -43 42 c-25 23 -66 49 -95 59 -65 23 -143 74
-143 94 0 40 19 53 78 53 l57 -1 -22 -18z"/>
<path d="M12386 4755 c-177 -45 -349 -197 -408 -363 -26 -73 -35 -233 -18
-310 45 -208 222 -387 432 -437 79 -18 135 -19 221 0 228 48 403 227 453 463
56 267 -106 530 -391 635 -68 25 -212 31 -289 12z m397 -130 c97 -67 103 -231
10 -274 -80 -38 -141 -30 -196 26 -60 59 -66 143 -15 208 53 68 135 84 201 40z
m-402 -18 c52 -35 83 -98 74 -153 -17 -113 -156 -181 -246 -121 -40 27 -79 91
-79 131 0 43 35 107 77 139 48 36 124 38 174 4z m500 -347 c48 -13 104 -72
117 -121 36 -142 -121 -250 -238 -164 -113 84 -85 245 49 285 35 11 32 11 72
0z m-609 -55 c43 -29 78 -91 78 -140 0 -49 -40 -107 -90 -132 -55 -28 -82 -29
-136 -3 -125 61 -126 226 -2 289 52 27 94 23 150 -14z m328 -218 c49 -26 90
-90 90 -139 0 -143 -193 -212 -288 -104 -59 68 -46 172 29 229 57 43 107 47
169 14z"/>
<path d="M5291 4524 c-101 -27 -228 -95 -215 -115 3 -5 20 -9 37 -9 18 0 77
-11 132 -25 121 -30 274 -104 364 -177 l64 -51 -6 55 c-9 77 -53 223 -85 283
l-27 50 -105 2 c-67 1 -124 -3 -159 -13z"/>
<path d="M5681 4430 c58 -138 84 -362 60 -527 -4 -29 -4 -53 0 -53 13 0 212
203 243 249 l29 42 -22 47 c-69 143 -211 282 -313 307 l-27 7 30 -72z"/>
<path d="M4964 4297 c-42 -57 -78 -130 -98 -196 -17 -59 -22 -236 -7 -245 5
-3 17 7 28 23 86 134 272 280 428 337 32 12 61 26 63 32 6 19 -273 92 -348 91
-30 0 -40 -6 -66 -42z"/>
<path d="M5044 3948 c-99 -102 -164 -179 -164 -194 0 -4 14 -36 31 -70 64
-127 173 -235 279 -275 28 -10 50 -17 50 -15 0 2 -13 32 -29 67 -56 125 -66
185 -66 397 0 105 0 192 -1 192 0 0 -45 -46 -100 -102z"/>
<path d="M5987 3993 c-44 -60 -167 -179 -227 -220 -55 -37 -171 -96 -225 -113
l-40 -13 45 -19 c51 -22 219 -63 296 -73 50 -6 53 -5 77 27 40 52 94 167 111
234 17 66 21 190 7 212 -6 10 -18 1 -44 -35z"/>
<path d="M11030 3983 c-8 -3 -25 -15 -37 -26 -19 -16 -21 -27 -16 -62 l5 -42
-56 -31 c-31 -16 -79 -36 -108 -43 -75 -17 -105 -58 -45 -60 31 0 31 -1 7 -10
-34 -14 -33 -13 -19 -54 11 -30 17 -35 34 -30 50 17 68 11 77 -22 5 -18 13
-33 18 -33 5 0 11 -8 14 -18 7 -21 66 -52 97 -52 12 0 37 16 56 35 42 42 41
42 98 -71 38 -76 43 -117 21 -150 -29 -40 -29 -87 -2 -151 14 -33 28 -91 32
-129 4 -38 13 -84 21 -103 13 -33 12 -36 -12 -61 -32 -33 -33 -60 -2 -60 12 0
57 12 100 27 l79 27 -6 39 c-4 21 -29 99 -56 173 -28 74 -50 137 -50 142 0 10
120 142 129 142 4 0 15 -27 24 -59 19 -67 28 -76 152 -141 95 -50 104 -57 116
-87 7 -19 16 -23 53 -23 83 0 90 11 53 81 -18 33 -34 48 -63 59 -22 8 -76 42
-122 75 l-82 60 7 65 c5 36 8 106 8 157 0 109 -9 126 -105 190 -35 24 -77 56
-92 72 -16 17 -50 37 -76 47 -104 38 -132 53 -141 77 -17 45 -66 66 -111 50z"/>
<path d="M6600 3843 c-65 -24 -141 -105 -170 -182 -18 -50 -22 -75 -18 -134 6
-87 31 -141 88 -190 38 -32 40 -36 29 -61 -7 -14 -15 -26 -18 -26 -14 1 -51
39 -51 53 0 7 -9 22 -19 31 -19 17 -21 15 -70 -58 -28 -41 -51 -82 -51 -90 0
-19 39 -31 52 -18 8 8 24 2 54 -19 56 -38 57 -41 44 -90 -10 -37 -9 -44 10
-64 29 -31 94 -58 226 -94 60 -16 138 -41 174 -54 105 -40 174 -52 217 -39
l38 12 44 151 c40 134 48 152 70 161 145 54 214 144 214 279 0 112 -56 204
-163 267 -40 24 -55 27 -136 27 -83 0 -94 -2 -130 -27 -51 -35 -61 -35 -69 2
-10 46 -87 124 -147 150 -68 29 -159 35 -218 13z m163 -221 c51 -54 45 -117
-15 -148 -65 -34 -148 12 -148 81 0 84 105 127 163 67z m466 -138 c26 -21 31
-33 31 -69 0 -62 -29 -95 -85 -95 -36 0 -48 5 -69 31 -29 34 -35 94 -13 121
35 44 92 49 136 12z m-329 -289 c145 -43 180 -55 180 -64 0 -3 -14 -51 -30
-105 -17 -55 -30 -101 -30 -103 0 -9 -37 0 -177 44 -104 31 -153 51 -153 61 0
11 35 137 56 201 2 7 10 11 17 8 6 -2 68 -21 137 -42z"/>
<path d="M6775 3177 c-2 -7 -10 -34 -19 -61 -9 -27 -16 -55 -16 -61 0 -10 217
-85 246 -85 8 0 55 130 50 137 -1 1 -60 20 -130 42 -86 27 -128 35 -131 28z"/>
<path d="M5220 3702 c0 -50 21 -129 66 -245 33 -87 38 -95 66 -101 124 -25
346 28 438 103 33 27 19 37 -70 44 -128 11 -282 77 -427 184 l-73 53 0 -38z"/>
<path d="M9990 3611 c-8 -5 -42 -9 -76 -8 -53 1 -66 -2 -98 -26 -20 -16 -54
-52 -76 -81 -24 -31 -55 -59 -78 -69 -59 -26 -78 -71 -87 -199 -5 -73 -4 -108
4 -108 49 0 94 68 72 109 -6 11 -11 36 -11 56 0 45 45 95 84 95 21 0 32 10 54
47 44 77 84 113 125 113 20 0 43 -7 51 -16 15 -14 18 -14 42 5 29 23 92 28
125 11 13 -8 31 -8 56 -1 29 8 42 7 60 -4 29 -20 48 -87 34 -126 -9 -27 -8
-31 13 -39 22 -8 61 -49 68 -72 2 -6 16 -8 36 -3 l32 7 -16 36 c-8 20 -26 48
-38 62 -17 18 -25 41 -28 78 -4 45 -11 60 -41 89 -33 33 -41 36 -119 44 -110
10 -170 10 -188 0z"/>
<path d="M8425 3523 c-49 -13 -109 -64 -138 -118 -22 -39 -22 -48 -22 -506 l0
-466 26 -34 c30 -39 106 -84 160 -94 l36 -7 6 93 c4 51 7 119 7 152 l0 60 92
-7 c50 -3 153 -6 230 -6 l138 0 0 -150 c0 -88 4 -150 10 -150 5 0 31 5 58 11
62 13 124 64 147 121 22 56 33 243 36 638 2 337 3 334 -63 397 -39 37 -95 63
-138 63 l-30 0 0 -139 c0 -77 -3 -142 -8 -144 -4 -3 -109 -3 -235 0 l-227 6 0
144 0 143 -32 -1 c-18 -1 -42 -4 -53 -6z m545 -608 l0 -225 -235 0 -235 0 0
148 c0 82 3 183 6 225 l7 77 228 0 229 0 0 -225z"/>
<path d="M6268 3333 c-56 -85 -57 -88 -35 -95 61 -17 85 -10 117 36 37 55 38
73 3 114 l-28 32 -57 -87z"/>
<path d="M10200 3220 c-69 -15 -192 -42 -274 -59 -246 -52 -286 -62 -286 -73
0 -6 24 -85 54 -177 30 -91 78 -240 107 -331 28 -91 53 -167 55 -169 3 -4 336
63 484 97 68 16 75 20 78 43 2 20 -44 527 -62 669 -1 14 -9 26 -17 26 -8 1
-70 -11 -139 -26z m105 -82 c3 -24 14 -131 25 -238 11 -107 22 -222 26 -255 5
-48 3 -63 -9 -73 -8 -7 -17 -9 -20 -5 -5 9 -32 140 -43 212 -12 81 -40 392
-35 396 2 3 15 5 27 5 19 0 24 -7 29 -42z m-125 10 c0 -7 14 -139 30 -293 16
-154 30 -289 30 -300 0 -18 -1 -18 -16 -3 -10 9 -36 113 -70 274 -30 143 -57
270 -60 285 -5 22 -1 26 33 36 53 15 53 15 53 1z m-141 -55 c60 -230 114 -497
109 -541 -2 -15 -10 -28 -18 -30 -24 -4 -54 98 -105 352 -25 122 -45 226 -45
233 0 10 14 17 42 22 4 0 12 -16 17 -36z m-119 0 c0 -6 86 -412 116 -548 6
-28 -12 -53 -26 -39 -10 10 -180 546 -180 567 0 10 39 26 68 26 12 1 22 -2 22
-6z m-142 -55 c20 -69 160 -524 167 -539 4 -12 -1 -18 -21 -23 -14 -4 -28 -6
-29 -4 -2 2 -13 35 -24 73 -12 39 -54 168 -93 288 -59 180 -69 220 -57 228 28
18 48 10 57 -23z"/>
<path d="M7242 3047 c-14 -16 -55 -167 -48 -174 3 -3 34 -7 68 -8 35 -2 83
-10 107 -19 25 -9 48 -13 52 -9 8 9 39 110 39 129 0 7 -30 22 -66 34 -36 12
-73 31 -82 41 -19 22 -55 25 -70 6z"/>
<path d="M7681 3011 l-164 -16 -30 -103 c-17 -56 -28 -104 -26 -105 2 -2 59
-43 126 -90 116 -83 153 -106 153 -94 0 3 27 94 60 201 59 193 67 227 53 225
-5 -1 -82 -9 -172 -18z"/>
<path d="M6284 2885 c-3 -20 -5 -38 -3 -39 12 -12 202 -64 214 -59 8 3 37 0
65 -7 39 -9 54 -19 66 -41 42 -82 174 -112 247 -56 41 31 51 47 61 93 7 30 7
30 -71 57 -60 20 -219 67 -229 67 -1 0 -7 -21 -13 -46 -9 -35 -15 -44 -29 -40
-9 2 -28 7 -42 11 -14 4 -32 15 -40 24 -13 16 -176 71 -207 71 -7 0 -15 -16
-19 -35z"/>
</g>
</svg>
